<?xml version="1.0" encoding="utf-8"?>
<!-- Generator: Adobe Illustrator 25.2.1, SVG Export Plug-In . SVG Version: 6.00 Build 0)  -->
<svg version="1.1" id="Layer_1" xmlns="http://www.w3.org/2000/svg" xmlns:xlink="http://www.w3.org/1999/xlink" x="0px" y="0px"
	 viewBox="0 0 200 200" style="enable-background:new 0 0 200 200;" xml:space="preserve">
<style type="text/css">
	.st0{fill:url(#SVGID_1_);}
</style>
<linearGradient id="SVGID_1_" gradientUnits="userSpaceOnUse" x1="31.263" y1="184.5931" x2="167.7634" y2="48.0927">
	<stop  offset="0.28" style="stop-color:#FA1660"/>
	<stop  offset="0.78" style="stop-color:#FF6E00"/>
</linearGradient>
<path class="st0" d="M197.25,77.58h-73.21c-0.96,0-1.44-0.48-1.67-1.44L99.39,6.76L76.9,76.15c-0.24,0.96-0.72,1.44-1.67,1.44H2.01
	l59.1,43.07c0.72,0.48,1.44,0.48,2.15,0c16.27-10.05,30.87-17.23,61.25-24.88c-27.75,21.53-55.03,45.94-77.52,74.17
	c-0.72,0.96-0.96,1.2-1.44,2.63l-6.46,19.86l59.1-42.83c0.96-0.72,1.44-0.72,2.39,0l59.1,42.83l-22.49-69.87
	c-0.24-0.96,0-1.44,0.72-1.91L197.25,77.58z"/>
</svg>
